<svg id="Camada_1" data-name="Camada 1" xmlns="http://www.w3.org/2000/svg" viewBox="0 0 552.97 128.88"><defs><style>.cls-1{fill:#fff;}</style></defs><path class="cls-1" d="M249.48,104.91a25.38,25.38,0,0,0,6.81,3.74,22.65,22.65,0,0,0,8,1.46c3.23,0,5.79-.66,7.62-2a6.14,6.14,0,0,0,2.71-5.27A6.9,6.9,0,0,0,273,98.18a8.07,8.07,0,0,0-5.2-2.35c-1.17-.14-2.27-.29-3.3-.43s-2.19-.3-3.58-.52c-4.54-.66-8-2.27-10.32-5a14,14,0,0,1-3.52-9.66,15.19,15.19,0,0,1,1.17-6.15,13.44,13.44,0,0,1,3.3-4.83,16.66,16.66,0,0,1,5.34-3.15A21.8,21.8,0,0,1,264.05,65a26.62,26.62,0,0,1,9.07,1.53A39.22,39.22,0,0,1,281,70.43L276.56,77A27,27,0,0,0,270.49,74a21.49,21.49,0,0,0-6.81-1.1,10.05,10.05,0,0,0-6.15,1.83A6.63,6.63,0,0,0,255,80.39a5.92,5.92,0,0,0,1.75,4.1c1.1,1.32,3,2.19,5.64,2.56.66.07,1.54.22,2.49.37s2.12.29,3.37.44a18.33,18.33,0,0,1,6.37,1.83A14.85,14.85,0,0,1,279,93.13a14.07,14.07,0,0,1,2.63,4.53,15.78,15.78,0,0,1,.88,5.2c0,4.83-1.61,8.57-4.9,11.2s-7.76,4-13.4,4a31.91,31.91,0,0,1-10.76-1.76,28.48,28.48,0,0,1-9.15-5.42Z" transform="translate(-120.03 -47.45)"/><polygon class="cls-1" points="183.55 18.01 216.86 18.01 216.86 25.47 191.46 25.47 191.46 40.34 213.13 40.34 213.13 47.36 191.46 47.36 191.46 62.66 216.86 62.66 216.86 70.13 183.55 70.13 183.55 18.01"/><path class="cls-1" d="M356.07,65.45H364V99.06a13.5,13.5,0,0,0,.8,4.75,9.65,9.65,0,0,0,2.27,3.45,9.38,9.38,0,0,0,3.37,2.12,10.94,10.94,0,0,0,4.17.73,11.58,11.58,0,0,0,4.25-.73,10.23,10.23,0,0,0,3.37-2.12,9.36,9.36,0,0,0,2.19-3.45,13.27,13.27,0,0,0,.81-4.75V65.45h7.9V99.93a18.39,18.39,0,0,1-1.39,7.4,16,16,0,0,1-4,5.71,18.73,18.73,0,0,1-5.93,3.66,20.54,20.54,0,0,1-14.49,0,18.4,18.4,0,0,1-5.86-3.66,16,16,0,0,1-3.95-5.71,18.58,18.58,0,0,1-1.47-7.4Z" transform="translate(-120.03 -47.45)"/><path class="cls-1" d="M451,103a21.29,21.29,0,0,1-2.48,6.44,17,17,0,0,1-4.1,4.69,18,18,0,0,1-5.35,2.85,18.2,18.2,0,0,1-6.37,1,17.27,17.27,0,0,1-5.63-.88A18.13,18.13,0,0,1,422.4,115a15.5,15.5,0,0,1-3.51-3,19.64,19.64,0,0,1-2.49-3.36,12.38,12.38,0,0,1-1-2.27,13.72,13.72,0,0,1-.73-2.79,34,34,0,0,1-.36-4.61c-.08-1.83-.15-4.32-.15-7.46s.07-5.64.15-7.54a33.93,33.93,0,0,1,.36-4.54,16.3,16.3,0,0,1,.73-2.86,14,14,0,0,1,1-2.19A19.69,19.69,0,0,1,418.89,71a15.5,15.5,0,0,1,3.51-3,21.37,21.37,0,0,1,4.69-2.2,19.43,19.43,0,0,1,5.63-.8,18.38,18.38,0,0,1,6.81,1.17A19,19,0,0,1,445,69.55a19.26,19.26,0,0,1,6,10.91h-8.34a11.6,11.6,0,0,0-1.32-2.93,13.27,13.27,0,0,0-2.2-2.34,12.65,12.65,0,0,0-2.92-1.68,11,11,0,0,0-3.52-.59A9.76,9.76,0,0,0,428,74a11.16,11.16,0,0,0-3.29,2.71,12.19,12.19,0,0,0-1.24,1.9,9,9,0,0,0-.81,2.49,24.45,24.45,0,0,0-.44,3.95c-.07,1.61-.15,3.74-.15,6.45s.08,4.83.15,6.44a24.32,24.32,0,0,0,.44,4,8.87,8.87,0,0,0,.81,2.49,9.33,9.33,0,0,0,1.24,1.9,10,10,0,0,0,3.29,2.64,9.06,9.06,0,0,0,4.76,1.17c4.47,0,7.76-2.34,10-7.1Z" transform="translate(-120.03 -47.45)"/><path class="cls-1" d="M496.05,105.94H476.28l-4,11.64h-8.35l19-52.13h6.59l19,52.13h-8.34Zm-2.27-7-7.54-22.77h-.15l-7.54,22.77Z" transform="translate(-120.03 -47.45)"/><polygon class="cls-1" points="406.7 18.01 414.17 18.01 437.74 55.05 437.89 55.05 437.89 18.01 445.79 18.01 445.79 70.13 438.33 70.13 414.75 33.09 414.61 33.09 414.61 70.13 406.7 70.13 406.7 18.01"/><polygon class="cls-1" points="478.37 25.04 464.1 25.04 464.1 18.01 500.56 18.01 500.56 25.04 486.28 25.04 486.28 70.13 478.37 70.13 478.37 25.04"/><path class="cls-1" d="M643.72,91.52c0,2.7.07,4.83.14,6.44a25.49,25.49,0,0,0,.44,4,8.87,8.87,0,0,0,.81,2.49,9.33,9.33,0,0,0,1.24,1.9,10.07,10.07,0,0,0,3.3,2.64,9.06,9.06,0,0,0,4.76,1.17,9.5,9.5,0,0,0,4.83-1.17,10.62,10.62,0,0,0,3.22-2.64,13.67,13.67,0,0,0,1.24-1.9,8.77,8.77,0,0,0,.88-2.49,24.32,24.32,0,0,0,.44-4c.07-1.61.07-3.74.07-6.44s0-4.84-.07-6.45a24.45,24.45,0,0,0-.44-3.95,8.88,8.88,0,0,0-.88-2.49,20.92,20.92,0,0,0-1.24-1.9A11.93,11.93,0,0,0,659.24,74a10.24,10.24,0,0,0-4.83-1.1,9.76,9.76,0,0,0-4.76,1.1,11.21,11.21,0,0,0-3.3,2.71,12.19,12.19,0,0,0-1.24,1.9,9,9,0,0,0-.81,2.49,25.64,25.64,0,0,0-.44,3.95c-.07,1.61-.14,3.74-.14,6.45m-7.91,0c0-3.15.07-5.64.15-7.54a33.93,33.93,0,0,1,.36-4.54,15.37,15.37,0,0,1,.74-2.86,13.83,13.83,0,0,1,1-2.19A19.69,19.69,0,0,1,640.57,71a15.5,15.5,0,0,1,3.51-3,21.37,21.37,0,0,1,4.69-2.2,19.5,19.5,0,0,1,5.64-.8,20.41,20.41,0,0,1,5.71.8,22.56,22.56,0,0,1,4.61,2.2,17.64,17.64,0,0,1,3.58,3,23.57,23.57,0,0,1,2.42,3.37c.44.8.81,1.53,1.1,2.19a28.7,28.7,0,0,1,.66,2.86,33.82,33.82,0,0,1,.44,4.54c.07,1.9.07,4.39.07,7.54s0,5.63-.07,7.46a33.67,33.67,0,0,1-.44,4.61,22.51,22.51,0,0,1-.66,2.79,21.17,21.17,0,0,1-1.1,2.27,23.5,23.5,0,0,1-2.42,3.36,17.64,17.64,0,0,1-3.58,3,18.87,18.87,0,0,1-4.61,2.13,18.12,18.12,0,0,1-5.71.88,17.33,17.33,0,0,1-5.64-.88,18.13,18.13,0,0,1-4.69-2.13,15.5,15.5,0,0,1-3.51-3,19.64,19.64,0,0,1-2.49-3.36,12.3,12.3,0,0,1-1-2.27,13,13,0,0,1-.74-2.79A34,34,0,0,1,636,99C635.88,97.15,635.81,94.66,635.81,91.52Z" transform="translate(-120.03 -47.45)"/><path class="cls-1" d="M429.89,145.61H438L435.48,139c-.76-2-1.32-3.63-1.69-4.92a32.81,32.81,0,0,1-1.32,4.56Zm-6.83,9.71,9.08-23.65h3.44l9.64,23.65h-3.57l-2.74-7.17H429l-2.58,7.17Zm-6.05,0V131.67h3.14v23.65Zm-21.18-13.21h6.71a10,10,0,0,0,3.37-.47,3.3,3.3,0,0,0,1.82-1.42,3.65,3.65,0,0,0,.62-2.11,3.39,3.39,0,0,0-1.22-2.74,5.56,5.56,0,0,0-3.83-1.09h-7.47Zm-3.13,13.21V131.67h10.47a14.19,14.19,0,0,1,4.82.62,5.24,5.24,0,0,1,2.61,2.25,6.76,6.76,0,0,1,1,3.57,6,6,0,0,1-1.62,4.26,8.55,8.55,0,0,1-5,2.18,7.46,7.46,0,0,1,1.88,1.19,15.41,15.41,0,0,1,2.58,3.14l4.1,6.44h-3.9l-3.14-4.92c-.92-1.42-1.65-2.51-2.24-3.27a7.34,7.34,0,0,0-1.59-1.59,5.28,5.28,0,0,0-1.45-.63,11.42,11.42,0,0,0-1.72-.09h-3.64v10.5Zm-16.39-25.11,2.11-4.52h3.84l-3.54,4.52Zm-1.49,15.4h8.06L380.41,139c-.76-2-1.33-3.63-1.69-4.92a32.81,32.81,0,0,1-1.32,4.56ZM368,155.32l9.09-23.65h3.44l9.64,23.65h-3.57l-2.74-7.17H373.9l-2.58,7.17Zm-6,0V131.67h3.14v23.65Zm-19,0V131.67h3.14v20.88h11.63v2.77Zm-8.52,0V131.67h3.13v23.65Zm-19.56-2.77h5.88a10.57,10.57,0,0,0,2.15-.14,4.83,4.83,0,0,0,1.81-.62,3.78,3.78,0,0,0,1.19-1.33,4.35,4.35,0,0,0,.47-2,3.83,3.83,0,0,0-.7-2.28,3.41,3.41,0,0,0-1.88-1.39,11.67,11.67,0,0,0-3.44-.39h-5.48Zm0-10.94H320a12.47,12.47,0,0,0,3-.26,3.68,3.68,0,0,0,1.82-1.19,3.5,3.5,0,0,0,.6-2.08,3.89,3.89,0,0,0-.57-2.09,2.88,2.88,0,0,0-1.62-1.22,13,13,0,0,0-3.6-.33h-4.72Zm-3.14,13.71V131.67h8.89a10.77,10.77,0,0,1,4.33.72,5.44,5.44,0,0,1,2.57,2.22,5.64,5.64,0,0,1,.93,3.1,5.17,5.17,0,0,1-.83,2.84,5.69,5.69,0,0,1-2.48,2.18,6.08,6.08,0,0,1,3.31,2.15,5.78,5.78,0,0,1,1.15,3.57,7.08,7.08,0,0,1-.69,3.11,6.07,6.07,0,0,1-1.75,2.21,7.67,7.67,0,0,1-2.58,1.15,15.52,15.52,0,0,1-3.83.4ZM288.4,143.86a9.46,9.46,0,0,0,2.31,6.74,8,8,0,0,0,11.57,0q2.28-2.48,2.28-7a12.48,12.48,0,0,0-1-5,7.43,7.43,0,0,0-2.88-3.34,7.67,7.67,0,0,0-4.19-1.19,8,8,0,0,0-5.72,2.28c-1.62,1.52-2.41,4.06-2.41,7.6m-3.24-.07c0-3.9,1.06-7,3.17-9.18a10.67,10.67,0,0,1,8.16-3.34,11.59,11.59,0,0,1,5.92,1.55,10.47,10.47,0,0,1,4,4.36,14.3,14.3,0,0,1,1.38,6.35,14,14,0,0,1-1.45,6.44,10.12,10.12,0,0,1-4.1,4.29,12,12,0,0,1-5.75,1.46,11,11,0,0,1-6-1.62,10.19,10.19,0,0,1-4-4.4A13.51,13.51,0,0,1,285.16,143.79Zm-26.62,11.53V131.67h4.69l5.58,16.75c.53,1.55.89,2.71,1.16,3.5.26-.86.69-2.15,1.25-3.8l5.68-16.45h4.2v23.65h-3V135.53l-6.9,19.79h-2.81l-6.84-20.15v20.15Zm-8.59,0V131.67h3.14v23.65Z" transform="translate(-120.03 -47.45)"/><path class="cls-1" d="M649.7,155.32V131.67h17.08v2.77H652.84v7.27h13v2.77h-13v8.07h14.5v2.77Zm-14.24,0V134.44h-7.8v-2.77H646.4v2.77h-7.8v20.88Zm-29.9,0V131.67h3.21l12.42,18.56V131.67h3v23.65H621l-12.42-18.57v18.57Zm-21.93,0V131.67h17.08v2.77H586.77v7.27h13.05v2.77H586.77v8.07h14.5v2.77ZM568.93,146v-2.78h10V152a17.67,17.67,0,0,1-4.76,2.77,13.74,13.74,0,0,1-5,.93,13.55,13.55,0,0,1-6.35-1.49,9.86,9.86,0,0,1-4.29-4.33,13.61,13.61,0,0,1-1.45-6.31,14.8,14.8,0,0,1,1.45-6.44,9.68,9.68,0,0,1,4.13-4.43,13.3,13.3,0,0,1,6.24-1.45,12.17,12.17,0,0,1,4.66.83,7.67,7.67,0,0,1,3.24,2.31,9.94,9.94,0,0,1,1.78,3.86l-2.8.8a8.85,8.85,0,0,0-1.33-2.84,5.13,5.13,0,0,0-2.28-1.66,8,8,0,0,0-3.23-.62,9.59,9.59,0,0,0-3.7.66,6.85,6.85,0,0,0-2.55,1.71,8.25,8.25,0,0,0-1.48,2.35,12.34,12.34,0,0,0-.9,4.76,11.61,11.61,0,0,0,1.1,5.32,7,7,0,0,0,3.17,3.17,10.07,10.07,0,0,0,4.39,1,10.29,10.29,0,0,0,4-.79,10.17,10.17,0,0,0,2.94-1.69V146Zm-19.73,9.28V131.67h3.14v23.65Zm-19,0V131.67h3.13v20.88h11.63v2.77Zm-21.84,0V131.67h17.08v2.77H511.48v7.27h13v2.77h-13v8.07H526v2.77Zm-14.24,0V134.44h-7.8v-2.77H505v2.77h-7.79v20.88Zm-29.9,0V131.67h3.21l12.42,18.56V131.67h3v23.65h-3.2l-12.42-18.57v18.57Zm-8.62,0V131.67h3.14v23.65Z" transform="translate(-120.03 -47.45)"/><path class="cls-1" d="M164.75,176.28a7.87,7.87,0,0,1-1.16-.37c-.6-.25-7.59-4.17-9.86-5.53-.36-.22-.89-.52-1.19-.68l-1.18-.67c-.36-.22-2.47-1.43-4.68-2.71l-4.34-2.49L139.09,162c-1.12-.64-5.5-3.19-6-3.5-.36-.21-.9-.52-1.19-.67s-.83-.47-1.19-.68-2.05-1.2-3.75-2.17-3.34-2-3.65-2.16a7.46,7.46,0,0,1-3.06-5c-.26-1.68-.28-69.75,0-71.55.37-2.55,1.86-4.48,4.68-6.09l2.17-1.24,1.64-.95,1.31-.74,3.62-2.09c1.84-1.06,3.64-2.1,4-2.32s.86-.48,1.1-.59a3.14,3.14,0,0,0,.69-.41,15.45,15.45,0,0,1,1.37-.83c1.26-.71,6-3.45,7-4.05.36-.22.9-.52,1.19-.68l1.19-.67,3.2-1.87L156.2,52l1.6-.92,1.69-1c.2-.12.68-.38,1.07-.58s1.07-.59,1.51-.86a11.14,11.14,0,0,1,2.22-.91,6.82,6.82,0,0,1,4.46.09c.74.25,4.34,2.23,8.62,4.75l1.18.67,1,.58c.36.22,2.39,1.4,4.53,2.62l4.68,2.71c.45.26,1.06.6,1.35.75s.83.46,1.18.69,2.39,1.4,4.51,2.62l4.53,2.62c.35.22.89.53,1.18.68s.83.47,1.2.68l3.11,1.8c4.2,2.4,5.06,3.13,6,5.09l.56,1.16v73.22l-.57,1.2a9,9,0,0,1-3.18,3.51c-.39.21-1,.58-1.41.82s-1,.57-1.29.74l-9.28,5.34c-.36.22-.82.48-1,.58l-1.19.68-4.07,2.36L186.51,166c-.36.21-.89.52-1.19.68s-.83.46-1.19.67l-3.89,2.26c-1.79,1-3.62,2.09-4.07,2.37a10.54,10.54,0,0,1-1.31.68c-.27.1-.49.26-.49.33s-.3.28-.67.44-1.35.69-2.18,1.19c-2.21,1.32-3.05,1.61-4.81,1.68a13.63,13.63,0,0,1-2,0m2.95-8.46a12.37,12.37,0,0,0,3.84-1.65l4.07-2.34c1.88-1.08,3.71-2.14,4.07-2.36s.9-.53,1.19-.68.83-.45,1.19-.66c.81-.49,8.14-4.73,8.93-5.17.31-.17.89-.51,1.28-.75s.95-.56,1.25-.72l1.19-.67c1.72-1,5.95-3.47,6.61-3.82a6.87,6.87,0,0,0,3.68-3.91c.21-.82.28-42.71.08-43.24a70.71,70.71,0,0,0-7-4.24c-.34-.18-.92-.51-1.29-.73l-5.13-3-5.13-3c-.36-.22-.89-.52-1.19-.68l-1.19-.68-3.88-2.26L176.19,85l-1.2-.67-1-.58c-4.86-2.89-5.31-3.07-7.7-3.07h-2l-1.73.89c-1.46.75-6.42,3.57-8.84,5-.36.22-.85.5-1.1.63A7.32,7.32,0,0,0,149,90.87c-.21.65-.27,2.1-.29,7.31,0,3.58,0,6.6,0,6.73,0,.3,1.2.29,1.39,0s4.9-3,9.45-5.57l1.29-.75c3-1.78,5.09-2.22,7.59-1.58a83.85,83.85,0,0,1,9.66,5.24c.36.21.89.52,1.19.67s.83.45,1.19.67c.73.45,7.23,4.19,7.91,4.55a8.16,8.16,0,0,1,1.31,1.12,4.16,4.16,0,0,1,1.25,2.06c.35,1.12.36,1.61.36,12.4,0,12.12,0,12.3-1,14.2a8.72,8.72,0,0,1-3.36,3.22c-.7.4-1.57.9-1.92,1.12l-4.52,2.62L176,147.47c-.36.22-.89.52-1.19.68s-.83.46-1.18.68c-4,2.42-4.9,2.79-6.92,2.92a5.56,5.56,0,0,1-2.63-.28c-1.22-.42-1.36-.49-6.27-3.32l-4-2.27c-.32-.18-.9-.52-1.3-.77s-.95-.57-1.24-.72-.83-.44-1.19-.66l-3.27-1.9-3.26-1.91c-.36-.22-.9-.52-1.19-.68s-.83-.46-1.19-.68l-3.9-2.25-4-2.3c-.83-.49-1.65-.95-2.26-1.29s-1.78-1.05-2.36-1.44a1.16,1.16,0,0,0-.94-.24l-.44.11.05,6.81c0,6.54.07,6.84.44,7.64.65,1.42,1.71,2.36,4.28,3.85,1.31.76,2.68,1.55,3,1.77s.91.53,1.2.69.83.45,1.19.67,2.19,1.27,4.07,2.34l4.07,2.35,1.18.68c.3.15.86.48,1.25.71l1.28.76c.77.42,5.63,3.24,6.44,3.74.36.21.89.52,1.19.67l1.18.68c3.92,2.33,5.1,2.93,6.34,3.23A6.12,6.12,0,0,0,167.7,167.82Zm-.12-24.57a12.44,12.44,0,0,0,4-1.66c1.39-.82,8.37-4.86,8.9-5.14a8.5,8.5,0,0,0,2.47-2.13c1-1.43,1.09-1.9,1-9.06l0-6.5-.41-.06a1,1,0,0,0-.69.17,4.23,4.23,0,0,1-.6.41c-.94.53-8,4.6-8.81,5.1-4.76,2.84-6.61,3.33-9.29,2.49a82.13,82.13,0,0,1-8.76-4.76c-.36-.21-.9-.51-1.19-.66s-.83-.46-1.19-.68-2.05-1.2-3.74-2.17c-6.36-3.62-6.77-3.95-7.46-5.83-.34-.91-.35-1.48-.35-12.63,0-10.79,0-11.75.33-12.74a9.07,9.07,0,0,1,.78-1.79A11.38,11.38,0,0,1,146,82.54c1.63-.94,2.77-1.59,3.18-1.8.2-.11.73-.41,1.18-.68l4.06-2.37c1.79-1,3.54-2,3.9-2.26l1.19-.67c.3-.16.85-.48,1.25-.71a13,13,0,0,1,4-1.78c2.42-.55,3.74-.16,8.28,2.44l4.16,2.39c.36.22.89.52,1.18.68s.83.46,1.2.68l4.51,2.62c2.12,1.22,4.15,2.4,4.51,2.62s.89.52,1.19.68.83.46,1.18.68l4.69,2.7c2.22,1.27,4.34,2.49,4.7,2.71l1,.58c.41.22,1.74,1,2.64,1.55.51.31.68.35.92.17s.29-.87.27-6.82c0-3.63-.08-6.84-.17-7.13a7,7,0,0,0-1.59-2.5,34.1,34.1,0,0,0-5.07-3.13c-.31-.18-.89-.51-1.28-.75s-1-.56-1.25-.72-.82-.46-1.18-.68c-1.54-.91-5.93-3.45-6.62-3.81-.41-.23-1.07-.61-1.46-.85s-.87-.53-1.07-.64c-.44-.23-1.3-.72-4.62-2.65l-3.18-1.84c-.31-.17-.89-.51-1.29-.75s-.95-.56-1.24-.72-.83-.46-1.19-.67c-1.64-1-4.22-2.41-4.86-2.71a10.23,10.23,0,0,0-4.83-.22,109.94,109.94,0,0,0-9.67,5.24c-.36.22-.89.52-1.18.67l-1.21.68c-.73.45-8,4.67-8.91,5.18l-1.29.76c-.39.24-.95.55-1.25.71s-.82.46-1.18.67l-4.07,2.35c-1.88,1.07-3.71,2.14-4.07,2.36a8,8,0,0,1-.92.52A7.39,7.39,0,0,0,128,78l-.53,1,0,21.41,0,21.4.67.52c.37.29,1.78,1.16,3.13,1.94s2.76,1.58,3.12,1.79.9.52,1.19.68.83.46,1.19.68,2.11,1.24,3.89,2.26l3.89,2.27,1.18.68c.3.15.86.48,1.25.71s1,.57,1.29.75l3.8,2.19,5.34,3.07,1.06.62c3.4,2,5.17,2.91,6,3.07a15.83,15.83,0,0,0,1.88.34A11.36,11.36,0,0,0,167.58,143.25Zm2-25.19c1-.5,1.93-1,3-1.64.31-.18,2.05-1.18,3.88-2.21,3-1.7,3.3-1.91,3.26-2.31s-.25-.55-.76-.81c-.77-.38-1.72-.92-2.85-1.59-.39-.24-.95-.56-1.25-.71l-1.19-.68c-4.1-2.48-5.35-3-7.36-3a8.31,8.31,0,0,0-4,1.06c-.24.16-.6.38-.8.49l-3.7,2.13c-1.84,1.06-3.67,2.08-4.06,2.27s-.71.45-.73.58,0,.33,0,.45.49.53,1.94,1.29l1.25.72c.39.24.95.57,1.24.72s.83.46,1.19.68a36.42,36.42,0,0,0,5.76,3,18.57,18.57,0,0,0,2.32,0A5.52,5.52,0,0,0,169.56,118.06Z" transform="translate(-120.03 -47.45)"/></svg>